HIERARCHY
ROOT root
{
	OFFSET 0.000000 0.000000 0.000000
	CHANNELS 6 Xposition Yposition Zposition Zrotation Yrotation Xrotation
	JOINT lhip
	{
		OFFSET 0.058581 -0.082280 -0.017664
		CHANNELS 3 Zrotation Yrotation Xrotation
		JOINT lknee
		{
			OFFSET 0.043451 -0.386469 0.008037
			CHANNELS 3 Zrotation Yrotation Xrotation
			JOINT lankle
			{
				OFFSET -0.014790 -0.426874 -0.037428
				CHANNELS 3 Zrotation Yrotation Xrotation
				JOINT ltoe
				{
					OFFSET 0.041054 -0.060286 0.122042
					CHANNELS 3 Zrotation Yrotation Xrotation
					End Site
					{
						OFFSET 0.000000 0.000000 0.000000
					}
				}
			}
		}
	}
	JOINT rhip
	{
		OFFSET -0.060310 -0.090513 -0.013543
		CHANNELS 3 Zrotation Yrotation Xrotation
		JOINT rknee
		{
			OFFSET -0.043257 -0.383688 -0.004843
			CHANNELS 3 Zrotation Yrotation Xrotation
			JOINT rankle
			{
				OFFSET 0.019056 -0.420046 -0.034562
				CHANNELS 3 Zrotation Yrotation Xrotation
				JOINT rtoe
				{
					OFFSET -0.034840 -0.062106 0.130323
					CHANNELS 3 Zrotation Yrotation Xrotation
					End Site
					{
						OFFSET 0.000000 0.000000 0.000000
					}
				}
			}
		}
	}
	JOINT lowerback
	{
		OFFSET 0.004439 0.124404 -0.038385
		CHANNELS 3 Zrotation Yrotation Xrotation
		JOINT upperback
		{
			OFFSET 0.004488 0.137956 0.026820
			CHANNELS 3 Zrotation Yrotation Xrotation
			JOINT chest
			{
				OFFSET -0.002265 0.056032 0.002855
				CHANNELS 3 Zrotation Yrotation Xrotation
				JOINT lowerneck
				{
					OFFSET -0.013390 0.211636 -0.033468
					CHANNELS 3 Zrotation Yrotation Xrotation
					JOINT upperneck
					{
						OFFSET 0.010113 0.088937 0.050410
						CHANNELS 3 Zrotation Yrotation Xrotation
						End Site
						{
							OFFSET 0.000000 0.000000 0.000000
						}
					}
				}
				JOINT lclavicle
				{
					OFFSET 0.071702 0.114000 -0.018898
					CHANNELS 3 Zrotation Yrotation Xrotation
					JOINT lshoulder
					{
						OFFSET 0.122921 0.045205 -0.019046
						CHANNELS 3 Zrotation Yrotation Xrotation
						JOINT lelbow
						{
							OFFSET 0.255332 -0.015649 -0.022946
							CHANNELS 3 Zrotation Yrotation Xrotation
							JOINT lwrist
							{
								OFFSET 0.265709 0.012698 -0.007375
								CHANNELS 3 Zrotation Yrotation Xrotation
								End Site
								{
									OFFSET 0.000000 0.000000 0.000000
								}
							}
						}
					}
				}
				JOINT rclavicle
				{
					OFFSET -0.082954 0.112472 -0.023707
					CHANNELS 3 Zrotation Yrotation Xrotation
					JOINT rshoulder
					{
						OFFSET -0.113228 0.046853 -0.008472
						CHANNELS 3 Zrotation Yrotation Xrotation
						JOINT relbow
						{
							OFFSET -0.260127 -0.014369 -0.031269
							CHANNELS 3 Zrotation Yrotation Xrotation
							JOINT rwrist
							{
								OFFSET -0.269108 0.006794 -0.006027
								CHANNELS 3 Zrotation Yrotation Xrotation
								End Site
								{
									OFFSET 0.000000 0.000000 0.000000
								}
							}
						}
					}
				}
			}
		}
	}
}
MOTION
Frames: 16
Frame Time: 0.033333
1.231115 0.702806 0.989510 -92.420108 0.479637 86.120472 0.375309 -0.782584 0.756512 -0.883185 -7.274137 4.289301 1.423604 9.759603 -7.934854 0.000000 -0.000000 0.000000 1.237383 -1.704929 -0.459514 -2.232927 0.695508 6.797520 1.592804 -9.334980 -9.241033 0.000000 -0.000000 0.000000 -1.114791 1.080521 6.059610 0.789175 -4.000672 2.894973 -0.526450 -0.663069 -2.969399 1.050238 0.063705 -10.943743 3.639488 -2.324415 1.698845 -30.277450 -5.331188 -0.005431 -51.744164 -6.941072 10.660777 7.257081 -19.431703 -1.747952 -7.948304 -5.565697 4.711660 29.137958 8.112205 2.257319 51.902024 1.929595 15.717480 -11.030792 32.471049 4.381953 2.092854 6.469617 12.169471 
1.232067 0.701742 0.989588 -92.159988 0.577523 86.474665 0.344920 -0.968159 0.073415 -0.835203 -7.308633 4.663942 1.486681 9.766786 -7.775308 0.000000 -0.000000 0.000000 1.269923 -1.745710 -0.899111 -2.213664 0.730432 6.774183 1.575707 -9.541984 -9.007618 0.000000 -0.000000 0.000000 -0.858837 1.138114 6.165946 0.857571 -4.274498 2.767648 -0.672272 -0.616614 -2.875496 0.908510 -0.004117 -11.041817 3.580814 -2.242801 0.925442 -29.140454 -4.239370 -0.584309 -51.007096 -5.659353 10.741350 7.346012 -19.377214 -1.805187 -8.586220 -5.554196 4.606720 28.062889 7.489961 1.421639 50.723859 1.921371 15.658005 -10.588257 33.532438 4.853379 3.242188 6.539982 12.076609 
1.232028 0.701034 0.990235 -92.539669 0.505234 86.634191 0.229197 -0.705082 0.127514 -0.829903 -7.306963 4.289811 1.420158 10.014626 -7.746014 0.000000 -0.000000 0.000000 1.168113 -1.781978 -1.242670 -2.258378 0.986838 6.976677 1.774402 -9.370669 -8.942407 0.000000 -0.000000 0.000000 -0.946346 1.414467 6.084714 0.878953 -3.947715 3.010391 -0.710600 -0.466571 -2.715135 0.786587 -0.104636 -11.075610 3.494385 -2.215225 -0.050363 -27.858495 -3.150122 -1.061568 -49.715921 -4.320652 10.618497 6.772205 -20.062990 -1.636865 -8.569455 -5.724611 4.432053 27.016792 6.965544 1.042774 48.751217 1.939292 15.552655 -9.117945 34.740512 5.728441 3.533336 6.727734 11.978086 
1.231193 0.700043 0.990972 -92.498715 0.485960 86.990290 0.097595 -0.675558 -0.142412 -0.749263 -7.486400 4.181525 1.289559 10.078418 -7.744977 0.000000 -0.000000 0.000000 1.099463 -1.941651 -1.597229 -2.291490 1.101080 6.998172 1.923039 -9.445650 -8.768349 0.000000 -0.000000 0.000000 -0.980045 1.939826 5.786778 1.012594 -3.836442 3.296752 -0.807157 -0.329943 -2.430170 0.579553 -0.373657 -10.614296 3.611588 -2.396191 -1.602795 -26.181413 -2.040924 -1.831436 -47.497880 -2.529437 10.482785 6.136292 -21.121600 -1.973490 -8.689151 -6.359163 4.811661 25.479135 6.507451 0.288520 45.598538 1.072241 15.600457 -7.104170 36.705927 7.749273 4.118089 7.410519 13.266398 
1.230791 0.699568 0.991423 -92.270918 0.504548 87.290049 0.076809 -0.825464 -0.574197 -0.775061 -7.724868 4.350162 1.188694 10.234087 -7.686861 0.000000 -0.000000 0.000000 1.093699 -2.058091 -1.872340 -2.325589 1.093785 6.971204 1.974857 -9.597414 -8.658894 0.000000 -0.000000 0.000000 -0.885344 2.105581 6.206004 1.019175 -3.866447 2.726532 -0.869905 -0.220961 -2.453998 0.344251 -0.557325 -10.451471 3.841532 -2.482782 -2.321920 -25.133002 -1.378729 -2.381541 -45.712588 -1.155663 10.412614 5.681961 -21.330937 -2.361681 -8.952493 -7.116262 4.949373 24.550903 6.155990 -0.053872 43.567001 -0.122184 15.756378 -6.103099 38.106942 9.426961 4.599575 8.406831 14.836683 
1.231447 0.699750 0.991591 -92.114726 0.470565 87.702308 -0.070535 -0.910925 -1.302621 -0.766481 -8.064810 4.682330 1.233272 10.612743 -7.723936 0.000000 -0.000000 0.000000 1.170989 -1.989253 -2.516294 -2.425102 1.342712 7.191415 1.897181 -10.005331 -8.534911 0.000000 -0.000000 0.000000 -0.792758 2.282470 6.783682 0.974989 -3.622564 2.172474 -1.011145 -0.142063 -2.356945 0.036122 -0.936280 -10.274564 4.016034 -2.542233 -3.390917 -23.848717 -0.448809 -3.354944 -42.972601 -0.018166 10.353392 5.527967 -20.545945 -3.247745 -9.698911 -6.958939 5.345721 23.175464 5.520243 -0.764686 41.119541 -0.859007 15.863915 -4.533498 39.267565 10.800888 5.501198 8.586379 15.583442 
1.231396 0.700246 0.991814 -91.787529 0.417353 88.097103 -0.157828 -1.041829 -1.943762 -0.795369 -8.367431 4.964722 1.119563 10.908089 -7.798694 0.000000 -0.000000 0.000000 1.229274 -2.047113 -3.028985 -2.493982 1.487937 7.312578 1.968505 -10.407556 -8.547979 0.000000 -0.000000 0.000000 -0.870544 2.473068 7.024711 0.972723 -3.677568 2.191859 -1.111881 0.063242 -2.217096 -0.119399 -1.268484 -10.283947 4.371194 -2.537831 -4.525973 -22.099520 0.401177 -4.054358 -40.521000 1.045604 10.273428 5.794221 -19.885760 -4.107833 -9.508182 -7.091322 5.991661 21.712006 5.061758 -1.354982 38.992705 -1.581702 15.635245 -3.795984 40.075318 10.961347 5.414026 9.350690 15.709282 
1.232153 0.700688 0.992016 -91.351364 0.355030 88.451854 -0.250790 -1.151291 -2.666439 -0.856074 -8.811145 5.353420 0.930588 11.186761 -7.827436 0.000000 -0.000000 0.000000 1.250219 -1.970513 -3.650244 -2.512185 1.480945 7.673878 1.927399 -10.915130 -8.513185 0.000000 -0.000000 0.000000 -0.886049 2.492589 7.402166 0.919769 -3.759936 2.077080 -1.215539 0.142277 -1.689649 -0.377514 -1.432754 -10.619549 4.682960 -2.683741 -5.969182 -20.136902 1.310934 -4.438091 -38.183645 1.951266 9.702198 6.320346 -19.434991 -5.632707 -9.891357 -7.346159 5.618381 19.919000 4.736669 -2.026079 37.204814 -2.035437 15.240711 -3.429920 40.758488 10.726068 6.183245 9.459023 14.935216 
1.233886 0.700116 0.990541 -90.536281 0.331145 89.642293 -0.246217 -2.554856 -4.563745 -1.665893 -11.475795 6.214902 1.766204 15.193535 -8.885788 0.000000 -0.000000 0.000000 1.241170 -1.649157 -5.191483 -1.838125 4.126866 7.904821 2.292960 -15.371610 -8.803651 0.000000 -0.000000 0.000000 -0.696561 1.489529 7.756532 0.026713 -3.024496 -1.450456 -0.414190 0.708480 2.022902 -0.716857 -3.611035 -12.252098 4.597701 -1.709829 -6.826528 -18.495083 3.143755 -5.532484 -34.954190 0.296720 7.566885 3.848826 -17.714520 -6.992215 -8.587433 -6.032548 8.276460 17.919751 2.899832 -1.845247 33.111297 -0.852558 9.644042 7.041891 41.982652 19.259871 1.465961 6.188348 12.302110 
1.234942 0.701440 0.990665 -90.218789 0.287714 90.006000 -0.119667 -2.545286 -5.526291 -2.052226 -11.839954 7.099363 1.597101 15.345241 -9.252077 0.000000 -0.000000 0.000000 1.364526 -1.619651 -6.167262 -1.763586 4.360579 8.854070 2.273926 -15.985616 -9.083468 0.000000 -0.000000 0.000000 -0.710845 1.433454 9.050099 -0.150165 -2.751376 -2.402951 -0.323224 0.661757 3.024607 -0.791581 -3.524596 -12.603920 4.764653 -2.313367 -8.871207 -16.390547 4.293547 -6.182416 -31.292564 1.303065 5.725072 3.277425 -17.226049 -8.060073 -8.025247 -6.362676 8.969056 15.827509 2.391894 -2.276102 30.379407 -1.357143 8.658051 8.800857 41.866298 21.087290 1.725086 7.123294 12.315336 
1.236300 0.702762 0.990883 -89.961698 0.275482 90.360205 0.000097 -2.727074 -6.641346 -2.480883 -12.252126 8.211032 1.712553 15.978908 -9.629478 0.000000 -0.000000 0.000000 1.491235 -1.673378 -7.305004 -1.551827 4.757382 10.063584 2.170851 -16.804895 -9.582088 0.000000 -0.000000 0.000000 -0.600688 1.542985 10.275416 -0.368524 -2.473137 -3.370048 -0.288610 0.620004 3.848629 -0.837432 -3.767379 -12.700657 5.118298 -2.764463 -10.260796 -14.611801 5.070871 -6.789700 -28.454528 2.078947 4.766477 2.657703 -16.685766 -8.093277 -6.888530 -6.783428 8.552012 13.934309 1.802155 -2.758807 28.483539 -1.845902 8.184409 10.929196 41.549870 23.212890 0.498367 7.606403 11.564265 
1.237933 0.704782 0.990578 -89.544615 0.320456 90.656176 0.276238 -3.017285 -7.983593 -3.109307 -12.373365 9.776836 1.791415 16.373674 -10.168518 0.000000 -0.000000 0.000000 1.670444 -1.699099 -8.331905 -1.304940 4.905519 11.185137 2.051097 -17.405170 -10.200766 0.000000 -0.000000 0.000000 -0.473897 1.635624 11.879624 -0.597455 -2.362229 -4.440071 -0.159126 0.545171 4.783135 -0.669446 -3.578395 -13.196075 5.329971 -3.499876 -12.002236 -12.511811 5.907788 -7.262942 -26.063735 2.974148 3.442273 2.126913 -16.626743 -8.413173 -6.185215 -6.923522 8.678972 12.055035 1.635139 -2.938666 26.560668 -2.613791 7.461637 12.911745 41.537414 25.584365 0.080625 8.022412 12.075554 
1.240576 0.706396 0.989995 -89.119285 0.211991 90.811325 0.363725 -3.391079 -9.316055 -3.849147 -12.698248 11.603699 2.102744 16.945428 -10.646239 0.000000 -0.000000 0.000000 1.547862 -1.779457 -9.593177 -0.837992 4.918779 12.946808 1.960852 -17.868631 -11.072879 0.000000 -0.000000 0.000000 -0.484356 1.761827 12.592016 -0.700679 -2.398560 -3.270279 -0.129550 0.576870 5.556724 -0.573468 -3.486670 -14.469023 5.411224 -4.197868 -13.913767 -9.876232 6.462655 -7.386602 -24.554675 3.835716 1.518272 2.233658 -16.896935 -9.214466 -6.495891 -6.587984 8.825526 9.749013 1.536779 -3.151225 24.813671 -3.319093 6.412208 14.602210 42.523208 27.357350 0.287160 7.983401 11.973608 
1.243180 0.708860 0.989023 -88.667495 0.233524 91.205502 0.709822 -3.665147 -11.216593 -4.760226 -12.735063 13.971747 2.249328 17.122559 -11.501959 0.000000 -0.000000 0.000000 1.687159 -1.815426 -11.270034 -0.362711 5.041394 14.988245 1.897038 -18.549691 -12.109351 0.000000 -0.000000 0.000000 -0.274418 1.651454 14.778480 -1.013919 -2.307368 -4.673513 -0.053130 0.375195 6.486136 -0.216614 -3.243406 -14.936284 5.539346 -4.589369 -16.077460 -7.321222 7.664476 -7.707518 -22.538127 5.147046 0.003904 1.898885 -16.992507 -9.378104 -7.064638 -6.395367 8.435563 7.150972 1.246404 -3.111332 23.280217 -3.984651 5.441215 17.123924 42.913488 30.032886 0.737339 7.763580 11.300368 
1.245888 0.711685 0.986944 -88.345544 0.299767 91.552736 1.221274 -3.856021 -13.710286 -6.164179 -12.629499 17.583881 2.246367 17.608397 -13.229748 0.000000 -0.000000 0.000000 1.858402 -1.771484 -13.152041 0.172791 5.143148 17.504196 1.875661 -19.125350 -13.543689 0.000000 -0.000000 0.000000 -0.092804 1.594467 16.923369 -1.134213 -2.094111 -6.068761 0.103945 0.269627 7.897743 -0.352438 -3.013269 -15.069926 5.730661 -5.207207 -18.953870 -4.765081 9.409685 -8.158043 -20.732217 5.589061 -1.614473 1.511956 -16.506323 -9.329226 -6.960060 -6.232033 9.050161 4.350323 -0.092592 -3.342440 21.959612 -4.198289 3.922113 19.354350 43.016466 32.253445 0.578291 8.313897 10.286348 
1.249083 0.714375 0.983056 -87.988131 0.275156 92.108662 1.740224 -3.943194 -16.981473 -7.744479 -11.806412 22.050607 2.330777 17.726478 -15.274986 0.000000 -0.000000 0.000000 1.793625 -1.899158 -15.681028 0.923092 4.949937 20.767375 1.759895 -19.424604 -15.241186 0.000000 -0.000000 0.000000 0.192766 1.451687 19.544964 -1.455990 -1.912062 -7.987340 0.219403 0.304204 8.857923 -0.428787 -2.695716 -14.318815 6.238433 -6.123319 -22.173020 -1.542821 11.293427 -8.076012 -19.346372 6.286640 -3.215463 1.442369 -16.208814 -9.384187 -8.153822 -5.998092 9.034537 0.887563 -1.336807 -2.751801 21.366262 -4.981872 2.370305 20.710192 43.139171 34.229089 1.622055 8.010653 8.398468 
